<svg width="70" height="75" viewBox="0 0 70 75" fill="none" xmlns="http://www.w3.org/2000/svg">
<rect width="70" height="70" fill="white"/>
<g filter="url(#filter0_d_244_54)">
<circle cx="34.5" cy="29.5" r="24.5" fill="white"/>
<path d="M33.3561 63.5565L17.3501 47.0119L51.7752 46.8794L36.1275 63.5362C35.3789 64.333 34.1163 64.3422 33.3561 63.5565Z" fill="white"/>
<circle cx="34.7396" cy="30.2398" r="6.34188" fill="#303030"/>
<path d="M33.3556 55.3099L22.6541 43.7607H47.184L36.1451 55.3303C35.3832 56.1288 34.1057 56.1195 33.3556 55.3099Z" fill="url(#paint0_linear_244_54)"/>
<path d="M45.3713 19.4589C43.1496 17.245 40.2914 15.7753 37.1934 15.2537C34.0954 14.7321 30.9113 15.1845 28.083 16.5482C25.2548 17.9119 22.9227 20.1191 21.4106 22.8636C19.8984 25.608 19.2812 28.7535 19.6445 31.8634C20.0078 34.9734 21.3337 37.8934 23.4382 40.2183C25.5426 42.5431 28.3212 44.1575 31.3881 44.8372C34.4551 45.5169 37.6584 45.2283 40.5533 44.0115C43.4482 42.7946 45.8911 40.7098 47.543 38.0465" stroke="#303030" stroke-width="7.17949" stroke-linecap="round" stroke-linejoin="round"/>
</g>
<defs>
<filter id="filter0_d_244_54" x="3" y="1" width="63" height="73.1396" filterUnits="userSpaceOnUse" color-interpolation-filters="sRGB">
<feFlood flood-opacity="0" result="BackgroundImageFix"/>
<feColorMatrix in="SourceAlpha" type="matrix" values="0 0 0 0 0 0 0 0 0 0 0 0 0 0 0 0 0 0 127 0" result="hardAlpha"/>
<feOffset dy="3"/>
<feGaussianBlur stdDeviation="3.5"/>
<feComposite in2="hardAlpha" operator="out"/>
<feColorMatrix type="matrix" values="0 0 0 0 0 0 0 0 0 0 0 0 0 0 0 0 0 0 0.16 0"/>
<feBlend mode="normal" in2="BackgroundImageFix" result="effect1_dropShadow_244_54"/>
<feBlend mode="normal" in="SourceGraphic" in2="effect1_dropShadow_244_54" result="shape"/>
</filter>
<linearGradient id="paint0_linear_244_54" x1="34.919" y1="43.7607" x2="34.919" y2="56.8035" gradientUnits="userSpaceOnUse">
<stop stop-color="#1A1A1A"/>
<stop offset="1" stop-color="#303030"/>
</linearGradient>
</defs>
</svg>
