<svg width="49" height="60" viewBox="0 0 49 60" fill="none" xmlns="http://www.w3.org/2000/svg">
<circle cx="24.5" cy="24.5" r="24.5" fill="white"/>
<path d="M23.3561 58.5565L7.35009 42.0119L41.7752 41.8794L26.1275 58.5362C25.3789 59.333 24.1163 59.3422 23.3561 58.5565Z" fill="white"/>
<circle cx="24.7396" cy="25.2396" r="6.34188" fill="#303030"/>
<path d="M23.3556 50.3099L12.6541 38.7607H37.184L26.1451 50.3303C25.3832 51.1288 24.1057 51.1195 23.3556 50.3099Z" fill="url(#paint0_linear_163_647)"/>
<path d="M35.3713 14.4587C33.1496 12.2448 30.2914 10.775 27.1934 10.2534C24.0954 9.73184 20.9113 10.1843 18.083 11.548C15.2548 12.9116 12.9227 15.1189 11.4106 17.8633C9.8984 20.6078 9.28115 23.7533 9.64449 26.8632C10.0078 29.9731 11.3337 32.8932 13.4382 35.218C15.5426 37.5429 18.3212 39.1572 21.3881 39.837C24.4551 40.5167 27.6584 40.2281 30.5533 39.0112C33.4482 37.7944 35.8911 35.7096 37.543 33.0463" stroke="#303030" stroke-width="7.17949" stroke-linecap="round" stroke-linejoin="round"/>
<circle cx="24.5" cy="24.5" r="24.5" fill="white"/>
<path d="M23.3561 58.5565L7.35009 42.0119L41.7752 41.8794L26.1275 58.5362C25.3789 59.333 24.1163 59.3422 23.3561 58.5565Z" fill="white"/>
<circle cx="24.7396" cy="25.2396" r="6.34188" fill="#303030"/>
<path d="M23.4572 50.5448L10.7301 37H39.5001L26.2209 50.5727C25.4594 51.3511 24.2028 51.3384 23.4572 50.5448Z" fill="url(#paint1_linear_163_647)"/>
<path d="M35.8283 14.4159C33.6067 12.202 30.7485 10.7323 27.6504 10.2107C24.5524 9.68911 21.3683 10.1416 18.5401 11.5052C15.7118 12.8689 13.3798 15.0762 11.8676 17.8206C10.3554 20.5651 9.73818 23.7106 10.1015 26.8205C10.4649 29.9304 11.7908 32.8504 13.8952 35.1753C15.9996 37.5002 18.7782 39.1145 21.8452 39.7942C24.9121 40.474 28.1154 40.1854 31.0103 38.9685C33.9052 37.7516 36.3481 35.6669 38 33.0036" stroke="#303030" stroke-width="7.17949" stroke-linecap="round" stroke-linejoin="round"/>
<defs>
<linearGradient id="paint0_linear_163_647" x1="24.919" y1="38.7607" x2="24.919" y2="51.8035" gradientUnits="userSpaceOnUse">
<stop stop-color="#432828"/>
<stop offset="1" stop-color="#303030"/>
</linearGradient>
<linearGradient id="paint1_linear_163_647" x1="25" y1="37" x2="25" y2="52" gradientUnits="userSpaceOnUse">
<stop stop-color="#432828"/>
<stop offset="1" stop-color="#303030"/>
</linearGradient>
</defs>
</svg>
