<svg width="80" height="98" viewBox="0 0 80 98" fill="none" xmlns="http://www.w3.org/2000/svg">
<ellipse cx="40" cy="40" rx="40" ry="40" fill="white"/>
<path d="M39.0157 96.5158L12 68.591L68.2042 68.3748L41.7871 96.4955C41.0385 97.2923 39.7758 97.3015 39.0157 96.5158Z" fill="white"/>
<ellipse cx="40.3912" cy="41.2076" rx="10.3541" ry="10.3541" fill="#5585FF"/>
<path d="M39.3176 84.7034L17.3042 60H64.6772L42.1623 84.7189C41.3973 85.5589 40.0734 85.5516 39.3176 84.7034Z" fill="url(#paint0_linear_163_673)"/>
<path d="M60.122 21.4659C56.1548 17.7229 51.0508 15.2381 45.5186 14.3562C39.9865 13.4744 34.3005 14.2393 29.2501 16.5449C24.1997 18.8504 20.0353 22.5821 17.335 27.2221C14.6347 31.8621 13.5325 37.1801 14.1813 42.438C14.8301 47.6958 17.1978 52.6327 20.9557 56.5633C24.7136 60.4939 29.6753 63.2232 35.1521 64.3724C40.6288 65.5216 46.3489 65.0337 51.5184 62.9763C56.6879 60.919 61.0503 57.3943 64 52.8916" stroke="#5585FF" stroke-width="10" stroke-linecap="round" stroke-linejoin="round"/>
<defs>
<linearGradient id="paint0_linear_163_673" x1="41.0244" y1="62" x2="41.0244" y2="86.29" gradientUnits="userSpaceOnUse">
<stop offset="0.9999" stop-color="#5585FF"/>
<stop offset="1" stop-color="#303030"/>
</linearGradient>
</defs>
</svg>
