<svg width="24" height="24" viewBox="0 0 24 24" fill="none" xmlns="http://www.w3.org/2000/svg">
<path d="M17.359 15.592C19.06 14.074 20 12.354 20 12.354C20 12.354 17 6.854 12 6.854C11.0396 6.85731 10.09 7.05743 9.20996 7.442L9.97996 8.213C10.6274 7.97716 11.3109 7.85568 12 7.854C14.12 7.854 15.879 9.022 17.168 10.311C17.7883 10.9347 18.3444 11.6191 18.828 12.354C18.77 12.441 18.706 12.537 18.633 12.642C18.298 13.122 17.803 13.762 17.168 14.397C17.003 14.562 16.831 14.725 16.651 14.883L17.359 15.592Z" fill="black"/>
<path d="M15.2971 13.5299C15.5203 12.9057 15.5616 12.231 15.4163 11.5843C15.271 10.9376 14.945 10.3454 14.4763 9.87669C14.0076 9.40798 13.4154 9.08201 12.7687 8.9367C12.122 8.79139 11.4473 8.83272 10.8231 9.05587L11.6461 9.87887C12.0304 9.82386 12.4223 9.85911 12.7906 9.98183C13.1589 10.1046 13.4936 10.3114 13.7681 10.5859C14.0426 10.8604 14.2494 11.1951 14.3721 11.5634C14.4949 11.9317 14.5301 12.3236 14.4751 12.7079L15.2971 13.5299ZM12.3541 14.8289L13.1761 15.6509C12.552 15.874 11.8773 15.9154 11.2305 15.77C10.5838 15.6247 9.99164 15.2988 9.52293 14.8301C9.05422 14.3613 8.72825 13.7692 8.58294 13.1224C8.43763 12.4757 8.47896 11.801 8.70211 11.1769L9.52511 11.9999C9.4701 12.3842 9.50536 12.776 9.62807 13.1443C9.75079 13.5127 9.9576 13.8473 10.2321 14.1219C10.5066 14.3964 10.8413 14.6032 11.2096 14.7259C11.578 14.8486 11.9698 14.8839 12.3541 14.8289Z" fill="black"/>
<path d="M7.35 9.824C7.17 9.984 6.997 10.146 6.832 10.311C6.21165 10.9347 5.65552 11.6191 5.172 12.354L5.367 12.642C5.702 13.122 6.197 13.762 6.832 14.397C8.121 15.686 9.881 16.854 12 16.854C12.716 16.854 13.39 16.721 14.02 16.494L14.79 17.266C13.9099 17.6505 12.9604 17.8507 12 17.854C7 17.854 4 12.354 4 12.354C4 12.354 4.939 10.633 6.641 9.116L7.349 9.825L7.35 9.824ZM17.646 18.708L5.646 6.708L6.354 6L18.354 18L17.646 18.708Z" fill="black"/>
</svg>
