<svg width="50" height="61" viewBox="0 0 50 61" fill="none" xmlns="http://www.w3.org/2000/svg">
<circle cx="24.8475" cy="25.1318" r="24.5" fill="white"/>
<path d="M23.7036 59.1883L7.69757 42.6437L42.1227 42.5112L26.475 59.168C25.7264 59.9648 24.4637 59.9741 23.7036 59.1883Z" fill="white"/>
<circle cx="25.0871" cy="25.8717" r="6.34188" fill="#BABABA"/>
<path d="M23.7031 50.9418L13.0016 39.3926H37.5315L26.4926 50.9622C25.7308 51.7607 24.4533 51.7513 23.7031 50.9418Z" fill="url(#paint0_linear_21_313)"/>
<path d="M35.7188 15.0907C33.4971 12.8768 30.6389 11.4071 27.5409 10.8855C24.4429 10.3639 21.2587 10.8164 18.4305 12.18C15.6023 13.5437 13.2702 15.751 11.758 18.4954C10.2459 21.2399 9.62862 24.3854 9.99197 27.4953C10.3553 30.6052 11.6812 33.5252 13.7856 35.8501C15.8901 38.175 18.6686 39.7893 21.7356 40.469C24.8026 41.1488 28.0058 40.8602 30.9008 39.6433C33.7957 38.4264 36.2386 36.3417 37.8904 33.6784" stroke="#BABABA" stroke-width="7.17949" stroke-linecap="round" stroke-linejoin="round"/>
<defs>
<linearGradient id="paint0_linear_21_313" x1="25.2665" y1="39.3926" x2="25.2665" y2="52.4353" gradientUnits="userSpaceOnUse">
<stop stop-color="#989898"/>
<stop offset="1" stop-color="#BABABA"/>
</linearGradient>
</defs>
</svg>
