<svg width="37" height="44" viewBox="0 0 37 44" fill="none" xmlns="http://www.w3.org/2000/svg">
<path d="M1.08156 35.44H5.08156V36.12H1.08156V35.44ZM2.44156 37.46H3.26156V39.72H2.44156V37.46ZM4.75156 35.44H5.57156V35.92C5.57156 36.51 5.57156 37.41 5.33156 38.6L4.52156 38.51C4.75156 37.32 4.75156 36.5 4.75156 35.92V35.44ZM6.80156 34.74H7.63156V41.55H6.80156V34.74ZM7.25156 37.68H8.92156V38.37H7.25156V37.68ZM1.92156 42.9H7.92156V43.58H1.92156V42.9ZM1.92156 40.92H2.74156V43.11H1.92156V40.92ZM0.621563 40.11L0.531563 39.43C2.14156 39.43 4.36156 39.39 6.19156 39.14L6.25156 39.74C4.37156 40.07 2.21156 40.11 0.621563 40.11ZM10.1708 39.5H10.8208C12.5308 39.5 13.4508 39.47 14.5808 39.27L14.6608 39.95C13.5108 40.15 12.5608 40.19 10.8208 40.19H10.1708V39.5ZM10.1508 35.38H14.0408V38.03H10.9908V39.91H10.1708V37.37H13.2208V36.05H10.1508V35.38ZM16.4008 34.75H17.2308V41.4H16.4008V34.75ZM14.6508 36.26H16.6008V36.93H14.6508V36.26ZM11.3908 42.86H17.5108V43.54H11.3908V42.86ZM11.3908 40.91H12.2108V43.16H11.3908V40.91ZM14.6508 38.29H16.6008V38.97H14.6508V38.29ZM20.03 37.79H26.21V38.47H20.03V37.79ZM20.03 35.2H20.86V38.11H20.03V35.2ZM19 39.76H27.17V40.45H19V39.76ZM21.1 40.02H21.93V43.78H21.1V40.02ZM24.23 40.02H25.05V43.78H24.23V40.02ZM31.8192 35.36H32.5392V36.05C32.5392 38.02 30.7092 39.55 28.8992 39.96L28.5292 39.27C30.1192 38.97 31.8192 37.59 31.8192 36.05V35.36ZM31.9692 35.36H32.6892V36.05C32.6892 37.6 34.3992 38.97 35.9792 39.27L35.6092 39.96C33.8092 39.55 31.9692 38.03 31.9692 36.05V35.36ZM28.1992 41.88H36.3892V42.56H28.1992V41.88Z" fill="black"/>
<path d="M14.3751 17.625H25.8334M14.3751 13.4583H18.5417M14.3751 9.29167H18.5417M8.64591 23.875C9.33658 23.875 9.99896 23.6006 10.4873 23.1123C10.9757 22.6239 11.2501 21.9615 11.2501 21.2708V5.125H28.9584V21.2708C28.9584 21.9615 28.684 22.6239 28.1957 23.1123C27.7073 23.6006 27.0449 23.875 26.3542 23.875H8.64591ZM8.64591 23.875C7.95525 23.875 7.29287 23.6006 6.80449 23.1123C6.31611 22.6239 6.04175 21.9615 6.04175 21.2708V9.29167H11.2761M21.6667 9.29167H24.7917V13.4583H21.6667V9.29167Z" stroke="black" stroke-width="2"/>
</svg>
