<svg width="70" height="70" viewBox="0 0 70 70" fill="none" xmlns="http://www.w3.org/2000/svg">
<path d="M52.4999 37.9107H37.9166V52.4941C37.9166 53.2676 37.6093 54.0095 37.0623 54.5565C36.5153 55.1034 35.7735 55.4107 34.9999 55.4107C34.2264 55.4107 33.4845 55.1034 32.9375 54.5565C32.3905 54.0095 32.0833 53.2676 32.0833 52.4941V37.9107H17.4999C16.7264 37.9107 15.9845 37.6034 15.4375 37.0565C14.8905 36.5095 14.5833 35.7676 14.5833 34.9941C14.5833 34.2205 14.8905 33.4786 15.4375 32.9317C15.9845 32.3847 16.7264 32.0774 17.4999 32.0774H32.0833V17.4941C32.0833 16.7205 32.3905 15.9786 32.9375 15.4317C33.4845 14.8847 34.2264 14.5774 34.9999 14.5774C35.7735 14.5774 36.5153 14.8847 37.0623 15.4317C37.6093 15.9786 37.9166 16.7205 37.9166 17.4941V32.0774H52.4999C53.2735 32.0774 54.0153 32.3847 54.5623 32.9317C55.1093 33.4786 55.4166 34.2205 55.4166 34.9941C55.4166 35.7676 55.1093 36.5095 54.5623 37.0565C54.0153 37.6034 53.2735 37.9107 52.4999 37.9107Z" fill="#5585FF"/>
</svg>
