<svg width="254" height="151" viewBox="0 0 254 151" fill="none" xmlns="http://www.w3.org/2000/svg">
<path d="M73.1805 39.08C73.2405 31.52 78.5205 25.04 88.9005 25.04C99.2205 25.04 104.561 31.52 104.561 39.02V40.82C104.561 48.44 99.3405 54.92 88.9005 54.92C78.4605 54.92 73.1805 48.44 73.1805 40.82V39.08ZM80.0205 76.1V59.3H89.0205V69.38H119.621V76.1H80.0205ZM81.5205 40.7C81.5205 44.72 83.9805 48.14 88.9005 48.14C93.8805 48.14 96.2205 44.72 96.2205 40.7V39.2C96.1605 35.3 93.8205 31.82 88.9005 31.82C84.1005 31.82 81.5205 35.3 81.5205 39.14V40.7ZM109.661 61.46V25.82H118.061V39.26H125.681V46.7H118.061V61.46H109.661ZM173.235 27.26V34.04H141.855V47.54H173.655V54.32H158.175V62.06H178.635V68.78H128.595V62.06H148.815V54.32H133.395V27.26H173.235ZM182.417 30.2H195.797V23.12H204.737V30.2H217.817V33.38H222.317V25.82H230.717V62.18H222.317V52.22H216.497V44.78H222.317V40.82H216.497V36.86H212.897C214.277 38.84 214.997 41.12 214.997 43.46V44.48C214.997 51.38 210.197 56.96 200.477 56.96C190.817 56.96 186.077 51.38 186.077 44.48V43.46C186.077 41.12 186.797 38.84 188.117 36.86H182.417V30.2ZM191.537 76.1V60.74H200.537V69.38H231.737V76.1H191.537ZM194.417 44.36C194.417 47.6 196.337 50.42 200.477 50.42C204.737 50.42 206.657 47.6 206.657 44.36V43.58C206.657 40.34 204.737 37.52 200.477 37.52C196.337 37.52 194.417 40.34 194.417 43.58V44.36Z" fill="#303030"/>
<path d="M2.37988 116.28C2.37988 112.44 4.53988 109.74 9.12988 109.74C13.7199 109.74 15.8799 112.47 15.8799 116.28V116.79C15.8799 120.6 13.7199 123.33 9.12988 123.33C4.53988 123.33 2.37988 120.63 2.37988 116.79V116.28ZM4.17988 116.79C4.17988 119.97 5.88988 121.83 9.12988 121.83C12.4299 121.83 14.1099 119.97 14.1099 116.76V116.31C14.1099 113.1 12.4299 111.24 9.12988 111.24C5.88988 111.24 4.17988 113.1 4.17988 116.28V116.79ZM5.43988 134.49V126.54H7.20988V133.02H23.2899V134.49H5.43988ZM20.4699 127.11V109.86H22.1799V116.88H26.7999V118.53H22.1799V127.11H20.4699ZM49.9758 127.41H48.2658V117.21H41.9658V115.56H48.2658V109.86H49.9758V127.41ZM28.4958 123.33C31.1658 121.65 34.5258 118.17 35.1258 116.73V111.69H29.1858V110.28H42.5358V111.69H36.9858V117.45C36.9858 120.03 38.5758 121.98 41.8158 121.98H43.5858V123.42H41.8458C38.9058 123.42 36.1158 122.13 35.4858 119.16C33.8958 121.14 31.5258 123.27 29.3358 124.62L28.4958 123.33ZM32.6358 134.49V126.72H34.3758V133.02H50.7858V134.49H32.6358ZM61.4958 108.57H63.4158V112.77H70.5858V114.24H65.8458C67.7358 115.2 68.6058 116.97 68.6058 118.74V119.01C68.6058 121.62 66.7158 124.35 62.4558 124.35C58.1058 124.35 56.3358 121.62 56.3358 119.01V118.74C56.3358 116.97 57.2058 115.2 59.0658 114.24H54.1758V112.77H61.4958V108.57ZM58.0458 118.98C58.0458 121.23 59.6958 122.94 62.4558 122.94C65.2458 122.94 66.8958 121.23 66.8958 118.98V118.77C66.8958 116.52 65.2458 114.81 62.4558 114.81C59.6958 114.81 58.0458 116.52 58.0458 118.77V118.98ZM58.3758 134.49V127.02H60.1458V133.02H76.2258V134.49H58.3758ZM73.5558 127.11V109.86H75.2658V116.7H79.8858V118.35H75.2658V127.11H73.5558ZM85.4818 133.44H82.5118V129.75H85.4818V133.44ZM113.218 128.79V130.29H89.3377V128.79H100.198V122.61H92.3377V110.64H110.218V112.02H94.0777V121.23H110.368V122.61H102.088V128.79H113.218ZM135.358 110.07H137.068V133.14H135.358V110.07ZM115.888 128.19C118.168 126.51 122.548 121.77 123.178 118.8V110.52H125.038V120.45C125.038 124.32 126.928 126.9 130.828 126.9H131.758V128.37H130.798C126.328 128.37 123.868 125.58 123.418 122.4C121.888 124.86 119.458 127.44 116.848 129.48L115.888 128.19ZM162.038 110.07H163.778V133.14H162.038V110.07ZM141.398 130.02V128.52H160.118V130.02H141.398ZM143.198 117.36V116.94C143.198 113.19 145.628 110.25 150.398 110.25C155.168 110.25 157.598 113.22 157.598 116.94V117.24C157.598 121.05 155.198 124.02 150.398 124.02C145.598 124.02 143.198 121.17 143.198 117.36ZM144.938 117.24C144.938 120.48 146.918 122.52 150.398 122.52C153.938 122.52 155.858 120.48 155.858 117.24V116.97C155.858 113.76 153.878 111.75 150.398 111.75C146.978 111.75 144.938 113.76 144.938 116.94V117.24ZM172.464 133.44H169.494V129.75H172.464V133.44ZM183.1 108.57H185.02V112.77H192.19V114.24H187.45C189.34 115.2 190.21 116.97 190.21 118.74V119.01C190.21 121.62 188.32 124.35 184.06 124.35C179.71 124.35 177.94 121.62 177.94 119.01V118.74C177.94 116.97 178.81 115.2 180.67 114.24H175.78V112.77H183.1V108.57ZM179.65 118.98C179.65 121.23 181.3 122.94 184.06 122.94C186.85 122.94 188.5 121.23 188.5 118.98V118.77C188.5 116.52 186.85 114.81 184.06 114.81C181.3 114.81 179.65 116.52 179.65 118.77V118.98ZM180.76 134.49V127.02H182.53V133.02H198.61V134.49H180.76ZM191.95 121.56V119.91H196.42V117.21H191.95V115.56H196.42V109.86H198.13V127.41H196.42V121.56H191.95ZM223.45 110.19V111.6H215.56V115.26C215.56 117.57 216.94 119.43 221.26 119.43H223.9V120.87H221.29C216.97 120.87 214.54 119.07 214.03 116.82C211.93 119.04 208.33 121.11 205.93 122.13L205.3 120.81C207.34 119.94 212.98 116.61 213.73 114.57V111.6H205.87V110.19H223.45ZM202.57 125.82V124.32H226.45V125.82H215.5V133.95H213.52V125.82H202.57ZM241.87 116.1C241.87 119.04 244.21 121.14 248.35 121.14H250.6V122.58H248.38C243.61 122.58 241.03 120.39 240.4 118.08C238.21 120.66 234.22 122.94 231.46 123.99L230.89 122.52C232.6 121.89 239.32 118.23 240.04 115.17V110.43H241.87V116.1ZM228.82 130.29V128.79H239.68V123.03H241.57V128.79H252.7V130.29H228.82Z" fill="#303030"/>
<circle cx="33.1666" cy="46.167" r="8.83333" fill="#303030"/>
<path d="M31.2391 81.0864L16.3334 65H50.5L35.1245 81.1148C34.0633 82.227 32.2839 82.214 31.2391 81.0864Z" fill="url(#paint0_linear_24_344)"/>
<path d="M47.9752 31.1508C44.8807 28.0671 40.8996 26.02 36.5845 25.2935C32.2695 24.567 27.8344 25.1972 23.8951 27.0966C19.9557 28.996 16.7075 32.0704 14.6013 35.893C12.4951 39.7156 11.6353 44.0968 12.1414 48.4285C12.6475 52.7602 14.4943 56.8274 17.4255 60.0656C20.3566 63.3038 24.2268 65.5523 28.4986 66.4991C32.7705 67.4459 37.2322 67.0439 41.2644 65.349C45.2966 63.6541 48.6992 60.7503 51 57.0407" stroke="#303030" stroke-width="10" stroke-linecap="round" stroke-linejoin="round"/>
<defs>
<linearGradient id="paint0_linear_24_344" x1="33.4167" y1="65" x2="33.4167" y2="83.1667" gradientUnits="userSpaceOnUse">
<stop stop-color="#1A1A1A"/>
<stop offset="1" stop-color="#303030"/>
</linearGradient>
</defs>
</svg>
