<svg width="37" height="40" viewBox="0 0 37 40" fill="none" xmlns="http://www.w3.org/2000/svg">
<g clip-path="url(#clip0_56_693)">
<path d="M13.0178 10.4465L17.5535 3.19646C17.7293 2.90991 17.9763 2.67376 18.2705 2.51103C18.5647 2.3483 18.8959 2.26454 19.2321 2.26789C19.4969 2.25834 19.7608 2.30195 20.0084 2.39615C20.2561 2.49036 20.4823 2.63324 20.6737 2.81637C20.8652 2.99949 21.0179 3.21913 21.1231 3.4623C21.2282 3.70548 21.2835 3.96726 21.2857 4.23218V9.42861H29.125C29.4146 9.438 29.699 9.5086 29.9595 9.63577C30.2199 9.76294 30.4505 9.94379 30.636 10.1664C30.8215 10.3891 30.9578 10.6485 31.036 10.9276C31.1141 11.2067 31.1322 11.4991 31.0893 11.7857L29.6607 21C29.5997 21.4925 29.3611 21.9457 28.9895 22.2745C28.6179 22.6034 28.139 22.7852 27.6428 22.7857H15.9285C15.3709 22.7879 14.8205 22.6595 14.3214 22.4107L13.0357 21.7679M13.0178 10.4465V21.7143H8.78568C8.54888 21.7143 8.32178 21.6203 8.15433 21.4528C7.98689 21.2854 7.89282 21.0583 7.89282 20.8215V11.3393C7.89282 11.1025 7.98689 10.8754 8.15433 10.708C8.32178 10.5405 8.54888 10.4465 8.78568 10.4465H13.0178Z" stroke="black" stroke-width="2" stroke-linecap="round" stroke-linejoin="round"/>
</g>
<path d="M1.63156 34.96H7.84156V35.64H1.63156V34.96ZM0.601563 37.95H8.79156V38.65H0.601563V37.95ZM4.26156 35.25H5.09156V38.23H4.26156V35.25ZM1.63156 31.46H7.75156V32.14H2.46156V35.26H1.63156V31.46ZM12.1808 31.52H12.8608V33.14C12.8608 35.22 11.7408 37.15 10.2608 37.9L9.75078 37.22C11.0908 36.58 12.1808 34.85 12.1808 33.14V31.52ZM12.3208 31.52H13.0008V33.14C13.0008 34.79 14.0808 36.45 15.4208 37.07L14.9208 37.73C13.4508 37.01 12.3208 35.15 12.3208 33.14V31.52ZM16.3608 30.73H17.1908V39.79H16.3608V30.73ZM24.12 32.35H26.06V33.03H24.12V32.35ZM24.12 33.97H26.06V34.65H24.12V33.97ZM19.26 31.42H24.02V32.1H19.26V31.42ZM19.11 35.78L19.02 35.08C20.5 35.08 22.61 35.06 24.3 34.86L24.35 35.48C22.61 35.76 20.58 35.78 19.11 35.78ZM20.16 31.95H20.96V35.31H20.16V31.95ZM22.32 31.95H23.12V35.31H22.32V31.95ZM25.6 30.74H26.43V36.32H25.6V30.74ZM23.46 36.5C25.33 36.5 26.47 37.09 26.47 38.13C26.47 39.17 25.33 39.76 23.46 39.76C21.58 39.76 20.44 39.17 20.44 38.13C20.44 37.09 21.58 36.5 23.46 36.5ZM23.46 37.15C22.09 37.15 21.27 37.51 21.27 38.13C21.27 38.75 22.09 39.12 23.46 39.12C24.83 39.12 25.65 38.75 25.65 38.13C25.65 37.51 24.83 37.15 23.46 37.15ZM34.3092 30.73H35.1492V39.78H34.3092V30.73ZM34.9192 34.4H36.5892V35.09H34.9192V34.4ZM31.9992 31.71H32.8092C32.8092 34.28 31.6292 36.6 28.7092 38.07L28.2492 37.43C30.7492 36.16 31.9992 34.23 31.9992 31.84V31.71ZM28.6692 31.71H32.4292V32.39H28.6692V31.71Z" fill="black"/>
<defs>
<clipPath id="clip0_56_693">
<rect width="25" height="25" fill="white" transform="translate(7)"/>
</clipPath>
</defs>
</svg>
